<svg width="200" height="45" viewBox="0 0 200 45" fill="none" xmlns="http://www.w3.org/2000/svg">
<path d="M35.8464 20.6962C35.0269 19.638 34.2631 18.538 33.5582 17.4006C32.8867 16.3275 32.352 15.2162 32.3138 13.9081C32.2781 13.1745 32.1222 12.4516 31.8524 11.7682C31.3583 10.5005 30.7634 9.27422 30.0733 8.10112C29.0074 6.23383 27.5716 4.60263 25.8533 3.30692C23.5274 1.52831 20.7586 0.417299 17.846 0.0938512C16.5125 -0.0553705 15.1651 -0.0265404 13.8392 0.179577C12.6647 0.353344 11.5109 0.645889 10.3957 1.05269C8.15626 1.89635 6.134 3.22841 4.47665 4.95158C2.8193 6.67475 1.56873 8.7455 0.816283 11.0126C0.336313 12.4095 0.0691873 13.8704 0.0238314 15.3464C-0.0380371 16.4702 0.0206422 17.5974 0.19887 18.7087C0.338157 19.4982 0.525208 20.2785 0.758997 21.0455C1.42315 23.064 2.47011 24.9363 3.84287 26.5604C3.92562 26.662 3.99882 26.7953 4.16113 26.8176C4.17684 26.7747 4.18129 26.7286 4.17405 26.6836C4.1668 26.6386 4.14811 26.5962 4.11975 26.5604C3.58138 25.4895 3.17222 24.3588 2.90084 23.1917C2.5618 21.8407 2.37289 20.4566 2.33753 19.0643C2.31329 18.2621 2.34306 17.4591 2.42664 16.6608C2.52727 15.7226 2.68134 14.7908 2.88811 13.87C3.25202 12.2814 3.84596 10.754 4.65124 9.33619C5.83594 7.24672 7.58771 5.53324 9.7051 4.39276C10.8036 3.79397 11.9825 3.35559 13.2059 3.09102C16.6774 2.56329 20.2265 3.19153 23.3041 4.87853C23.9052 5.26542 24.4736 5.70078 25.0035 6.18027C27.5785 8.48348 29.1584 11.6927 29.4114 15.1337C29.508 16.4116 29.406 17.6968 29.109 18.9436C28.7192 20.7274 27.9653 22.4119 26.8943 23.8922C25.8234 25.3726 24.4582 26.6169 22.884 27.5478C22.1902 27.9606 21.4296 28.2368 20.7199 28.6051C19.0883 29.4499 17.6628 30.6422 16.5444 32.0975C15.0114 34.0307 14.1781 36.4239 14.1797 38.8888C14.1882 40.0809 14.4036 41.2625 14.8163 42.3813C15.1064 43.1416 15.4554 43.8783 15.8601 44.5847C15.9015 44.6641 15.9492 44.7784 16.0511 44.7625C16.1529 44.7466 16.1434 44.6164 16.1625 44.5307C16.2388 44.1783 16.2643 43.8195 16.3311 43.4639C16.5438 42.2843 16.9141 41.1385 17.4323 40.0572C18.5168 37.7931 20.453 36.0475 22.8203 35.1995C23.9482 34.7793 25.1242 34.501 26.3211 34.3708C27.2218 34.2597 28.132 34.2311 29.039 34.193C30.086 34.1517 31.114 34.4343 32.1738 34.2406C33.7651 33.9485 34.1979 32.9707 33.746 31.5864C33.6218 31.199 33.4723 30.8276 33.3672 30.4307C33.2814 30.1649 33.2761 29.8797 33.3519 29.6109C33.4278 29.342 33.5815 29.1015 33.7937 28.9194C33.9486 28.7831 34.0531 28.5988 34.0906 28.3962C34.1281 28.1936 34.0964 27.9843 34.0006 27.8018C33.909 27.5864 33.7772 27.3903 33.6123 27.224C33.294 26.9287 33.3259 26.8525 33.6664 26.6175C33.8572 26.5052 34.0317 26.3674 34.1852 26.208C34.7135 25.573 34.7835 25.319 34.3029 24.757C33.9847 24.3887 34.0228 24.0966 34.3506 23.7378C34.7522 23.3452 35.1774 22.9773 35.6237 22.6361C36.362 22.0011 36.4448 21.4582 35.8528 20.6994" fill="#064870"/>
<path d="M9.23421 30.3139L9.27266 30.25L9.24382 30.1989C9.24699 30.2372 9.24699 30.2757 9.24382 30.3139" fill="#231F20"/>
<path d="M12.6554 38.2918C12.2034 38.4379 11.9807 38.2442 11.9138 37.8124C11.3092 33.9135 11.481 30.1385 13.7088 26.6968C14.7049 25.1665 16.0861 24.0838 17.6392 23.179C17.7468 23.1114 17.8763 23.0879 18.0009 23.1134C18.1254 23.1388 18.2352 23.2112 18.3075 23.3155C18.5621 23.5885 18.8168 23.8648 19.0586 24.1505C19.937 25.176 19.9084 25.1316 18.804 25.8681C16.1275 27.6493 14.0302 29.9099 13.2123 33.1198C12.8408 34.5314 12.7929 36.0083 13.0723 37.4409C13.1518 37.8441 13.19 38.2061 12.6681 38.3077" fill="#064870"/>
<path d="M26.1207 23.4488C25.6369 23.398 25.0131 23.3536 24.3957 23.2647C24.174 23.2214 23.9445 23.2427 23.7346 23.3261C23.5246 23.4094 23.3432 23.5512 23.2118 23.7346C22.8522 24.1822 22.4607 24.6045 22.0693 25.0268C21.751 25.3792 21.401 25.4109 21.3946 24.8521C21.3946 22.9472 20.4398 21.8867 18.6194 21.4803C18.1516 21.3756 18.1516 21.0676 18.5749 20.8231C19.083 20.5034 19.6078 20.2108 20.147 19.9468C20.3348 19.8812 20.4961 19.7566 20.6069 19.5917C20.7176 19.4268 20.7718 19.2306 20.7613 19.0324C20.7772 18.4832 20.8599 17.9402 20.9045 17.3941C20.9268 17.1401 20.9268 16.8417 21.1591 16.7242C21.3914 16.6068 21.5505 16.8893 21.7129 17.0195C22.1267 17.3405 22.515 17.6929 22.8745 18.0736C23.0254 18.2545 23.2301 18.3828 23.459 18.4399C23.6878 18.497 23.929 18.4799 24.1475 18.3911C24.6758 18.2323 25.2105 18.0958 25.7388 17.9656C25.9265 17.9212 26.1461 17.8386 26.2925 18.045C26.4389 18.2514 26.318 18.3879 26.2193 18.5308C25.1595 20.0389 25.2646 21.474 26.4707 22.8519C26.7508 23.1694 26.7094 23.3885 26.1047 23.4361" fill="#8B63AA"/>
<path d="M9.57145 31.6434C9.4972 31.7564 9.41307 31.8626 9.32003 31.9609C9.27274 32.006 9.2118 32.0342 9.14673 32.0411C9.08166 32.048 9.01614 32.0332 8.9604 31.999C8.83629 31.9228 8.88402 31.8116 8.91267 31.7037C9.17719 30.767 9.31946 29.8002 9.33594 28.8272C9.35953 26.9303 8.67944 25.0916 7.42642 23.6647C6.81219 22.9662 6.78991 22.9757 7.69057 22.7535L8.29525 22.6074C8.43497 22.5735 8.58152 22.5803 8.71748 22.627C8.85344 22.6737 8.9731 22.7584 9.06224 22.8709C10.9527 24.7759 11.0004 27.0428 10.3544 29.459C10.1475 30.2337 9.74967 30.9322 9.58736 31.6561" fill="#064870"/>
<path d="M17.9257 8.92657C18.5272 9.34884 19.0078 9.06944 19.4788 8.58685C19.762 8.29793 19.797 8.32968 19.8671 8.7202C19.8968 8.8384 19.9065 8.96075 19.8957 9.08214C19.8034 9.57426 20.0453 9.84731 20.4622 10.0346C20.6595 10.1235 20.9428 10.222 20.9428 10.4283C20.9428 10.6347 20.6245 10.6823 20.4463 10.7046C19.7047 10.7966 19.7366 11.4475 19.5456 11.9142C19.4279 12.2063 19.3674 12.2571 19.1733 11.9968C19.0587 11.8737 18.9524 11.7433 18.855 11.6062C18.6513 11.2411 18.349 11.2221 17.983 11.2888C17.7539 11.3237 17.4451 11.4602 17.3051 11.2443C17.1651 11.0284 17.4292 10.8284 17.5629 10.6887C17.9957 10.2347 17.8143 9.80286 17.5884 9.35202C17.5247 9.22502 17.4197 9.06945 17.5056 8.94562C17.5915 8.8218 17.7539 8.94562 17.9353 8.92975" fill="#064870"/>
<path d="M5.80965 31.3736C6.41115 31.7959 6.89171 31.5165 7.36272 31.0339C7.64597 30.7449 7.68098 30.7767 7.75099 31.1672C7.78239 31.2851 7.79209 31.4078 7.77964 31.5292C7.68734 32.0213 7.9324 32.2975 8.34613 32.4816C8.54345 32.5737 8.82669 32.669 8.82669 32.8753C8.82669 33.0817 8.50844 33.1325 8.33021 33.1516C7.58868 33.2436 7.62051 33.8945 7.42956 34.3612C7.3118 34.6533 7.25134 34.7041 7.0572 34.4438C6.94161 34.3216 6.83523 34.1911 6.73895 34.0532C6.53208 33.6881 6.22974 33.6691 5.86375 33.7357C5.63461 33.7738 5.3259 33.9072 5.18587 33.6913C5.04584 33.4754 5.30999 33.2754 5.44366 33.1357C5.87648 32.6817 5.69508 32.2499 5.4723 31.799C5.40547 31.672 5.30044 31.5165 5.38637 31.3926C5.4723 31.2688 5.63461 31.3926 5.81601 31.3767" fill="#064870"/>
<path d="M5.60923 22.074C5.5789 22.0461 5.55021 22.0164 5.5233 21.9851C5.10321 21.312 4.51762 21.1342 3.76655 21.3501C3.52149 21.42 3.44829 21.2835 3.55968 21.0549C3.57368 21.0253 3.58963 20.9966 3.60742 20.9691C3.82898 20.7473 3.95884 20.4505 3.97122 20.1376C3.9836 19.8247 3.8776 19.5186 3.67425 19.2801C3.60424 19.1848 3.49921 19.0578 3.60424 18.9308C3.65153 18.8857 3.71247 18.8575 3.77754 18.8506C3.84261 18.8437 3.90813 18.8585 3.96386 18.8927C4.21913 19.0269 4.51483 19.0633 4.79511 18.9948C5.07539 18.9264 5.32085 18.7579 5.48512 18.5212C5.83519 18.1085 6.01978 18.1752 6.02296 18.6959C6.01011 18.976 6.09055 19.2525 6.25175 19.4822C6.41295 19.712 6.64583 19.882 6.91407 19.9658C7.04137 20.0198 7.20686 20.0801 7.20368 20.2548C7.2005 20.4294 7.03819 20.4389 6.92362 20.4738C6.62256 20.5344 6.35446 20.7036 6.17066 20.949C5.98686 21.1945 5.90028 21.499 5.92749 21.8042C5.92749 22.0105 5.85429 22.2423 5.60923 22.0836" fill="#8B63AA"/>
<path d="M11.7454 19.3438C11.8409 19.3438 11.8568 19.4358 11.8854 19.4962C11.9361 19.6344 12.0285 19.7535 12.15 19.8371C12.2714 19.9207 12.4158 19.9646 12.5633 19.9629C12.6651 19.9629 12.7988 19.9629 12.8306 20.1058C12.8625 20.2486 12.767 20.2899 12.6906 20.3471C12.5794 20.4343 12.4982 20.554 12.4583 20.6894C12.4183 20.8248 12.4217 20.9693 12.4678 21.1027C12.4869 21.1884 12.5697 21.29 12.4678 21.3726C12.366 21.4551 12.2673 21.3726 12.2005 21.3313C12.0806 21.2303 11.9276 21.177 11.7707 21.1817C11.6139 21.1864 11.4643 21.2487 11.3507 21.3567C11.163 21.4932 11.0325 21.4138 11.0834 21.1852C11.1332 21.0274 11.1289 20.8575 11.0713 20.7023C11.0137 20.5471 10.906 20.4155 10.7652 20.328C10.6283 20.2296 10.6219 20.074 10.8288 20.0518C11.0069 20.0529 11.18 19.993 11.319 19.882C11.4581 19.7711 11.5547 19.6158 11.5926 19.4422C11.5995 19.4119 11.6172 19.3852 11.6424 19.3671C11.6676 19.349 11.6986 19.3407 11.7295 19.3438" fill="#064870"/>
<path d="M14.5712 15.8132C14.6142 15.8238 14.6532 15.8466 14.6836 15.8786C14.7141 15.9107 14.7347 15.9508 14.7431 15.9941C14.7748 16.1252 14.8535 16.2401 14.9643 16.3173C15.0751 16.3945 15.2103 16.4286 15.3446 16.4132C15.4591 16.4132 15.6119 16.4132 15.6628 16.5466C15.7138 16.6799 15.5801 16.7625 15.491 16.8355C15.3954 16.9166 15.326 17.024 15.2915 17.1444C15.2569 17.2647 15.2588 17.3925 15.2968 17.5118C15.3605 17.8769 15.2968 17.9277 14.9786 17.7658C14.8718 17.6881 14.7416 17.6493 14.6096 17.6556C14.4776 17.662 14.3518 17.7132 14.253 17.8007C14.2213 17.8389 14.1773 17.8649 14.1285 17.8742C14.0797 17.8834 14.0291 17.8754 13.9856 17.8515C13.9061 17.7943 13.9347 17.6896 13.957 17.6134C14.0084 17.4826 14.0102 17.3376 13.9622 17.2055C13.9141 17.0734 13.8195 16.9633 13.696 16.8958C13.6069 16.8355 13.4955 16.7561 13.5178 16.6418C13.5401 16.5275 13.6833 16.5116 13.7883 16.5021C13.9213 16.4903 14.0481 16.4406 14.1536 16.359C14.2591 16.2774 14.3389 16.1673 14.3835 16.0418C14.4216 15.956 14.4439 15.8195 14.5776 15.8132" fill="#8B63AA"/>
<path d="M14.8324 12.1681C14.876 12.1792 14.9156 12.2024 14.9465 12.235C14.9775 12.2676 14.9986 12.3082 15.0074 12.3523C15.0392 12.4831 15.118 12.5977 15.2289 12.6744C15.3398 12.751 15.475 12.7844 15.6089 12.7682C15.7235 12.7682 15.8731 12.7682 15.9272 12.9047C15.9813 13.0413 15.8444 13.1206 15.7521 13.1937C15.655 13.2735 15.5847 13.3811 15.5505 13.502C15.5164 13.6228 15.5201 13.7512 15.5612 13.8699C15.6248 14.2319 15.5612 14.2858 15.2429 14.1239C15.1367 14.0453 15.0066 14.0055 14.8745 14.0113C14.7423 14.0171 14.6162 14.0681 14.5173 14.1557C14.4473 14.216 14.3455 14.2763 14.25 14.2065C14.1545 14.1366 14.1991 14.0445 14.2213 13.9715C14.2726 13.8399 14.2741 13.6941 14.2255 13.5615C14.1769 13.4288 14.0815 13.3184 13.9572 13.2508C13.8713 13.1936 13.7567 13.1111 13.779 12.9968C13.8012 12.8825 13.9476 12.8666 14.0527 12.8571C14.1861 12.8469 14.3136 12.7978 14.4194 12.7159C14.5252 12.6341 14.6046 12.5231 14.6478 12.3967C14.686 12.3142 14.7083 12.1777 14.8388 12.1681" fill="#064870"/>
<path d="M8.67413 13.1905C8.62098 13.1752 8.56973 13.1539 8.52137 13.127C8.40876 13.0244 8.26175 12.9675 8.10923 12.9675C7.95671 12.9675 7.8097 13.0244 7.69709 13.127C7.6239 13.1683 7.55388 13.2445 7.46795 13.181C7.38202 13.1175 7.41385 13.0191 7.43931 12.9461C7.48642 12.8009 7.48245 12.6441 7.42805 12.5015C7.37365 12.3588 7.27208 12.239 7.14015 12.1619C6.9492 12.0063 6.89828 11.8444 7.22608 11.8444C7.37653 11.8366 7.52121 11.784 7.64146 11.6935C7.76171 11.603 7.85203 11.4786 7.90078 11.3364C7.99943 11.1078 8.11082 11.0665 8.21903 11.3364C8.2741 11.4707 8.36726 11.5862 8.4871 11.6685C8.60694 11.7508 8.74826 11.7965 8.89373 11.7999C9.21198 11.8317 9.24062 11.9523 9.0083 12.1587C8.89306 12.2351 8.80809 12.3491 8.76801 12.4812C8.72793 12.6133 8.73525 12.7553 8.7887 12.8826C8.83008 13.0032 8.86827 13.2001 8.66777 13.2159" fill="#8B63AA"/>
<path d="M10.975 17.988C10.7081 17.7841 10.3776 17.6805 10.0417 17.6956C9.70587 17.7107 9.38609 17.8435 9.13865 18.0706C8.83949 18.2992 8.50214 18.1849 8.62944 17.734C8.74264 17.3881 8.73327 17.0139 8.60292 16.674C8.47256 16.3342 8.22913 16.0493 7.91337 15.8672C7.59512 15.629 7.44554 15.2068 8.05022 15.1845C8.90951 15.1528 9.35824 14.6956 9.66377 13.9844C9.84835 13.5621 10.0839 13.3494 10.3226 13.9368C10.6408 14.7369 11.1723 15.1877 12.0889 15.1528C12.4962 15.1369 12.5503 15.429 12.2512 15.664C11.9455 15.8588 11.7157 16.1521 11.5999 16.4951C11.4842 16.8381 11.4894 17.2102 11.6147 17.5499C11.7292 17.9436 11.5001 18.1627 10.9782 17.988" fill="#064870"/>
<path d="M10.7205 39.2729C10.6441 39.4317 10.6218 39.4856 10.5932 39.5396C10.4849 39.7523 10.329 39.927 10.0712 39.8158C9.81343 39.7047 9.85162 39.4666 9.9471 39.2507C10.1055 38.9183 10.2128 38.5641 10.2654 38.1998C10.4043 37.2748 10.2414 36.3297 9.8007 35.5042C9.60618 35.1382 9.32002 34.8287 8.97006 34.6057C8.75046 34.4628 8.50541 34.2882 8.69318 34.0088C8.88095 33.7294 9.17056 33.8723 9.39334 34.0374C10.3895 34.7708 10.8127 35.809 10.9846 36.9933C11.0644 37.7624 10.9786 38.5395 10.7332 39.2729" fill="#8559A5"/>
<path d="M4.21851 15.1938C4.28213 15.0538 4.37357 14.9281 4.4873 14.8243C4.60103 14.7205 4.73468 14.6408 4.88016 14.5901C5.02565 14.5393 5.17995 14.5186 5.33372 14.529C5.48748 14.5395 5.63753 14.5809 5.77477 14.6509C6.04505 14.7905 6.24897 15.0312 6.342 15.3203C6.43502 15.6094 6.40958 15.9235 6.27124 16.1939C6.20675 16.3339 6.11412 16.4591 5.99909 16.5619C5.88406 16.6646 5.7491 16.7427 5.60257 16.7912C5.45604 16.8397 5.30107 16.8577 5.14729 16.844C4.99351 16.8303 4.8442 16.7852 4.70862 16.7115C4.57046 16.6507 4.44676 16.5615 4.34566 16.4496C4.24456 16.3377 4.16836 16.2058 4.12206 16.0624C4.07576 15.919 4.06042 15.7675 4.07704 15.6178C4.09366 15.4681 4.14188 15.3236 4.21851 15.1938ZM5.42469 15.2573C5.36956 15.2288 5.30932 15.2114 5.24743 15.2061C5.18553 15.2009 5.12322 15.2079 5.06406 15.2268C5.0049 15.2457 4.95006 15.2761 4.90272 15.3162C4.85537 15.3563 4.81645 15.4053 4.78818 15.4605C4.73929 15.5862 4.73574 15.7249 4.77812 15.853C4.82051 15.981 4.9062 16.0903 5.02051 16.1622C5.07987 16.1878 5.14383 16.2011 5.20851 16.2013C5.27318 16.2015 5.33723 16.1886 5.39676 16.1634C5.45628 16.1382 5.51004 16.1011 5.55478 16.0545C5.59952 16.0079 5.6343 15.9527 5.65701 15.8923C5.69023 15.8361 5.71036 15.7732 5.7159 15.7082C5.72144 15.6432 5.71226 15.5778 5.68903 15.5168C5.66581 15.4559 5.62913 15.4009 5.58172 15.356C5.53431 15.311 5.47738 15.2773 5.41514 15.2573" fill="#064870"/>
<path d="M15.8125 19.6612C15.8765 19.5214 15.9681 19.396 16.0819 19.2925C16.1957 19.189 16.3292 19.1095 16.4746 19.0588C16.62 19.0081 16.7741 18.9872 16.9278 18.9974C17.0814 19.0076 17.2314 19.0487 17.3687 19.1182C17.6386 19.2591 17.8421 19.5003 17.935 19.7897C18.0279 20.0791 18.0028 20.3934 17.8652 20.6645C17.8004 20.8045 17.7074 20.9298 17.5921 21.0326C17.4768 21.1353 17.3416 21.2134 17.1948 21.2619C17.048 21.3104 16.8928 21.3284 16.7388 21.3146C16.5848 21.3009 16.4352 21.2557 16.2994 21.182C16.1614 21.1206 16.038 21.0308 15.9372 20.9185C15.8364 20.8062 15.7606 20.6739 15.7146 20.5303C15.6686 20.3868 15.6536 20.2351 15.6704 20.0853C15.6873 19.9355 15.7357 19.791 15.8125 19.6612ZM17.0155 19.7278C16.9606 19.6987 16.9005 19.6808 16.8387 19.6751C16.7768 19.6694 16.7144 19.6761 16.6552 19.6947C16.5959 19.7133 16.541 19.7435 16.4936 19.7836C16.4461 19.8236 16.4072 19.8727 16.379 19.9279C16.3311 20.0541 16.328 20.193 16.3703 20.3212C16.4126 20.4495 16.4976 20.5594 16.6113 20.6327C16.671 20.6573 16.735 20.6698 16.7995 20.6693C16.8641 20.6689 16.9279 20.6555 16.9873 20.6301C17.0466 20.6046 17.1002 20.5676 17.1449 20.5212C17.1897 20.4747 17.2247 20.4198 17.2478 20.3597C17.281 20.3033 17.301 20.2401 17.3063 20.175C17.3116 20.1098 17.3022 20.0443 17.2786 19.9833C17.2551 19.9222 17.2181 19.8673 17.1703 19.8225C17.1225 19.7778 17.0653 19.7443 17.0027 19.7247" fill="#064870"/>
<path d="M12.4899 7.91367C12.5538 7.77389 12.6455 7.6485 12.7593 7.54506C12.8732 7.44161 13.0069 7.36227 13.1523 7.31183C13.2978 7.26138 13.452 7.24087 13.6056 7.25154C13.7593 7.26222 13.9091 7.30385 14.0462 7.37392C14.3164 7.51354 14.5204 7.75418 14.6134 8.04329C14.7064 8.3324 14.681 8.64649 14.5426 8.91696C14.4781 9.05691 14.3855 9.18214 14.2705 9.28488C14.1555 9.38762 14.0205 9.46567 13.874 9.5142C13.7274 9.56273 13.5725 9.5807 13.4187 9.56698C13.2649 9.55327 13.1156 9.50816 12.98 9.43448C12.8418 9.37339 12.718 9.28382 12.6169 9.17166C12.5158 9.0595 12.4396 8.92727 12.3933 8.78366C12.347 8.64005 12.3317 8.48829 12.3483 8.33836C12.365 8.18842 12.4132 8.04369 12.4899 7.91367ZM13.6961 7.98034C13.641 7.95135 13.5808 7.9336 13.5188 7.92814C13.4568 7.92268 13.3943 7.92961 13.335 7.94853C13.2758 7.96746 13.2209 7.99799 13.1736 8.03834C13.1263 8.0787 13.0875 8.12806 13.0596 8.18354C13.0107 8.30923 13.0071 8.44795 13.0495 8.57597C13.0919 8.70398 13.1776 8.8133 13.2919 8.88521C13.3513 8.91082 13.4152 8.92414 13.4799 8.92435C13.5446 8.92455 13.6086 8.91165 13.6681 8.88641C13.7277 8.86117 13.7814 8.82413 13.8262 8.77753C13.8709 8.73093 13.9057 8.67575 13.9284 8.61534C13.9616 8.55915 13.9817 8.49623 13.9873 8.43123C13.9928 8.36624 13.9837 8.30083 13.9604 8.23986C13.9372 8.17888 13.9005 8.12389 13.8531 8.07897C13.8057 8.03405 13.7488 8.00034 13.6865 7.98034" fill="#8B63AA"/>
<path d="M13.9953 23.8902C13.9025 23.8908 13.8116 23.8639 13.7342 23.8129C13.6567 23.7618 13.5963 23.689 13.5605 23.6036C13.5247 23.5182 13.5151 23.4241 13.5331 23.3332C13.551 23.2424 13.5957 23.1589 13.6613 23.0935C13.7269 23.028 13.8106 22.9835 13.9016 22.9656C13.9927 22.9477 14.087 22.9572 14.1726 22.9929C14.2582 23.0286 14.3312 23.0889 14.3824 23.1662C14.4336 23.2434 14.4605 23.3341 14.4599 23.4267C14.4599 23.5496 14.411 23.6675 14.3238 23.7544C14.2367 23.8414 14.1185 23.8902 13.9953 23.8902ZM13.9953 23.033C13.9171 23.0323 13.8405 23.0549 13.7752 23.0978C13.7098 23.1406 13.6588 23.2019 13.6284 23.2738C13.5981 23.3457 13.5898 23.4249 13.6047 23.5015C13.6195 23.5781 13.6568 23.6485 13.7119 23.7039C13.767 23.7593 13.8373 23.7971 13.9139 23.8125C13.9906 23.828 14.0701 23.8204 14.1424 23.7907C14.2147 23.761 14.2765 23.7105 14.32 23.6457C14.3635 23.5809 14.3867 23.5047 14.3867 23.4267C14.3867 23.3228 14.3456 23.2231 14.2723 23.1494C14.1989 23.0757 14.0994 23.0338 13.9953 23.033Z" fill="#27AAE1"/>
<path d="M19.1191 15.6671C19.0272 15.6671 18.9374 15.6399 18.861 15.589C18.7846 15.5381 18.725 15.4657 18.6898 15.381C18.6547 15.2963 18.6455 15.2031 18.6634 15.1131C18.6813 15.0232 18.7256 14.9406 18.7906 14.8758C18.8555 14.811 18.9383 14.7668 19.0285 14.7489C19.1186 14.731 19.212 14.7402 19.2969 14.7753C19.3818 14.8104 19.4544 14.8698 19.5055 14.946C19.5565 15.0223 19.5838 15.1119 19.5838 15.2036C19.5838 15.3265 19.5348 15.4444 19.4477 15.5313C19.3605 15.6183 19.2424 15.6671 19.1191 15.6671ZM19.1191 14.813C19.0417 14.813 18.966 14.8359 18.9016 14.8789C18.8373 14.9218 18.7871 14.9828 18.7575 15.0541C18.7278 15.1255 18.7201 15.204 18.7352 15.2798C18.7503 15.3555 18.7876 15.4251 18.8423 15.4797C18.8971 15.5343 18.9668 15.5715 19.0428 15.5866C19.1187 15.6017 19.1974 15.5939 19.2689 15.5644C19.3405 15.5348 19.4016 15.4848 19.4446 15.4205C19.4876 15.3563 19.5106 15.2808 19.5106 15.2036C19.5106 15.1523 19.5005 15.1015 19.4808 15.0541C19.4611 15.0067 19.4323 14.9637 19.3959 14.9274C19.3596 14.8912 19.3164 14.8624 19.2689 14.8428C19.2214 14.8231 19.1705 14.813 19.1191 14.813Z" fill="#27AAE1"/>
<path d="M8.90943 20.6137C8.81677 20.6143 8.72601 20.5875 8.64865 20.5366C8.5713 20.4857 8.51084 20.413 8.47494 20.3278C8.43905 20.2426 8.42933 20.1486 8.44702 20.0579C8.46471 19.9672 8.50901 19.8837 8.57431 19.8181C8.63961 19.7525 8.72296 19.7077 8.8138 19.6895C8.90464 19.6712 8.99886 19.6803 9.08453 19.7155C9.1702 19.7507 9.24346 19.8105 9.29501 19.8874C9.34656 19.9642 9.37408 20.0545 9.37408 20.147C9.3745 20.2081 9.36279 20.2687 9.33963 20.3254C9.31646 20.382 9.2823 20.4334 9.23912 20.4768C9.19593 20.5202 9.14456 20.5546 9.08798 20.5781C9.0314 20.6016 8.97072 20.6137 8.90943 20.6137ZM8.90943 19.7565C8.83111 19.7558 8.75438 19.7785 8.68899 19.8215C8.62361 19.8645 8.57254 19.926 8.54227 19.998C8.51201 20.0701 8.50393 20.1495 8.51905 20.2262C8.53418 20.3028 8.57183 20.3733 8.62721 20.4285C8.68259 20.4838 8.7532 20.5213 8.83005 20.5364C8.90689 20.5515 8.9865 20.5435 9.05874 20.5133C9.13098 20.4831 9.19258 20.4321 9.2357 20.3669C9.27882 20.3017 9.30151 20.2251 9.30088 20.147C9.3013 20.0953 9.29151 20.044 9.27206 19.9961C9.25262 19.9482 9.2239 19.9045 9.18755 19.8677C9.1512 19.8308 9.10793 19.8015 9.06021 19.7813C9.01249 19.7611 8.96125 19.7505 8.90943 19.7501V19.7565Z" fill="#27AAE1"/>
<path d="M4.07855 17.845C3.98589 17.8457 3.89513 17.8188 3.81778 17.7679C3.74042 17.717 3.67996 17.6444 3.64407 17.5591C3.60817 17.4739 3.59845 17.38 3.61614 17.2892C3.63383 17.1985 3.67813 17.115 3.74343 17.0494C3.80873 16.9838 3.89208 16.9391 3.98292 16.9208C4.07376 16.9025 4.16799 16.9116 4.25366 16.9468C4.33933 16.9821 4.41258 17.0419 4.46413 17.1187C4.51568 17.1955 4.5432 17.2859 4.5432 17.3783C4.54362 17.4395 4.53191 17.5001 4.50875 17.5567C4.48559 17.6133 4.45143 17.6648 4.40824 17.7081C4.36505 17.7515 4.31369 17.786 4.2571 17.8095C4.20052 17.8329 4.13984 17.845 4.07855 17.845ZM4.07855 16.9878C4.00065 16.9891 3.92486 17.0133 3.86074 17.0574C3.79662 17.1016 3.74704 17.1637 3.71824 17.2359C3.68944 17.3081 3.68272 17.3873 3.69892 17.4633C3.71511 17.5393 3.75351 17.6089 3.80926 17.6632C3.86501 17.7175 3.93563 17.7541 4.01221 17.7684C4.08879 17.7827 4.1679 17.7741 4.23958 17.7436C4.31126 17.7132 4.3723 17.6622 4.41501 17.5972C4.45771 17.5322 4.48017 17.456 4.47955 17.3783C4.47914 17.3263 4.46841 17.275 4.44799 17.2272C4.42758 17.1793 4.39788 17.136 4.3606 17.0997C4.32332 17.0634 4.2792 17.0348 4.23079 17.0156C4.18238 16.9964 4.13064 16.987 4.07855 16.9878Z" fill="#27AAE1"/>
<path d="M11.758 12.0411C11.6654 12.0411 11.575 12.0138 11.4981 11.9625C11.4211 11.9112 11.3612 11.8383 11.3257 11.753C11.2903 11.6677 11.2811 11.5739 11.2991 11.4834C11.3172 11.3928 11.3617 11.3097 11.4272 11.2444C11.4926 11.1791 11.5759 11.1347 11.6667 11.1167C11.7574 11.0987 11.8515 11.1079 11.937 11.1432C12.0225 11.1785 12.0955 11.2384 12.147 11.3151C12.1984 11.3919 12.2258 11.4821 12.2258 11.5744C12.2258 11.6982 12.1765 11.8169 12.0888 11.9044C12.001 11.992 11.882 12.0411 11.758 12.0411ZM11.758 11.1839C11.6598 11.1927 11.5685 11.2378 11.5021 11.3104C11.4356 11.383 11.3987 11.4777 11.3987 11.576C11.3987 11.6743 11.4356 11.769 11.5021 11.8416C11.5685 11.9142 11.6598 11.9593 11.758 11.9681C11.8126 11.973 11.8676 11.9665 11.9195 11.949C11.9714 11.9316 12.0192 11.9035 12.0596 11.8666C12.1001 11.8297 12.1324 11.7848 12.1545 11.7348C12.1766 11.6848 12.188 11.6307 12.188 11.576C12.188 11.5213 12.1766 11.4672 12.1545 11.4172C12.1324 11.3672 12.1001 11.3223 12.0596 11.2854C12.0192 11.2485 11.9714 11.2204 11.9195 11.203C11.8676 11.1855 11.8126 11.179 11.758 11.1839Z" fill="#27AAE1"/>
<path d="M12.2576 41.0954C12.2252 41.0936 12.1941 41.0821 12.1685 41.0622C12.1429 41.0423 12.124 41.0151 12.1143 40.9843C12.0638 40.8466 11.9846 40.7211 11.882 40.6161C11.7795 40.511 11.6558 40.4288 11.5192 40.3747C11.3283 40.2921 11.3378 40.181 11.5192 40.0572C11.5286 40.049 11.5394 40.0425 11.551 40.0381C11.6778 39.9999 11.7934 39.9317 11.8881 39.8394C11.9829 39.7471 12.0539 39.6334 12.0953 39.5079C12.1239 39.4285 12.1621 39.3523 12.2639 39.3587C12.305 39.3641 12.3435 39.3819 12.3742 39.4097C12.4049 39.4375 12.4264 39.474 12.4358 39.5143C12.4788 39.6382 12.5496 39.7507 12.6428 39.8431C12.736 39.9356 12.8492 40.0055 12.9736 40.0477C13.19 40.1397 13.1964 40.2953 12.9736 40.3874C12.8409 40.4345 12.7208 40.5114 12.6226 40.6121C12.5244 40.7128 12.4507 40.8347 12.4071 40.9684C12.3968 41.0012 12.3766 41.0301 12.3493 41.0511C12.3219 41.0721 12.2888 41.0842 12.2544 41.0859M12.6267 40.2413C12.5854 40.1969 12.5758 40.1747 12.5631 40.1683C12.5027 40.1425 12.4481 40.1052 12.4022 40.0583C12.3563 40.0115 12.3201 39.9561 12.2958 39.8953C12.2767 39.8508 12.2321 39.854 12.2098 39.8953C12.1557 40.0318 11.987 40.0921 11.9489 40.1937C11.9107 40.2953 12.1589 40.3302 12.1844 40.4795C12.1915 40.4966 12.2012 40.5127 12.213 40.5271C12.2512 40.5747 12.2989 40.5684 12.3148 40.5271C12.3346 40.4708 12.3661 40.4194 12.4073 40.3762C12.4484 40.3329 12.4983 40.2989 12.5535 40.2763C12.5772 40.2648 12.6016 40.2553 12.6267 40.2477" fill="#8559A5"/>
<path d="M48.4547 17.2915V34.3335H46.0449V12.7461H48.8155L56.8819 29.3263L64.8618 12.7461H67.5025V34.3335H65.1071V17.3781L58.2961 31.6928H55.3956L48.4547 17.2915Z" fill="black"/>
<path d="M75.973 32.7895C76.7618 32.7895 77.6036 32.5731 78.4982 32.1402C79.4025 31.7073 80.1 31.1445 80.5906 30.4518V26.5557C80.5906 26.5653 80.3549 26.6038 79.8835 26.6711C79.4218 26.7289 79.1765 26.7577 79.1476 26.7577C78.2145 26.8828 77.4352 27.0127 76.8099 27.1473C76.1846 27.282 75.6363 27.4407 75.1649 27.6235C74.6935 27.7967 74.3279 28.0083 74.0682 28.2585C73.8181 28.5086 73.6305 28.7972 73.5054 29.1243C73.39 29.4513 73.3323 29.841 73.3323 30.2931C73.3323 31.1397 73.568 31.7698 74.0393 32.1835C74.5203 32.5875 75.1649 32.7895 75.973 32.7895ZM80.6628 32.6019C79.4218 33.9968 77.7719 34.6943 75.7132 34.6943C75.0494 34.6943 74.429 34.6029 73.8517 34.4201C73.2842 34.247 72.7791 33.9872 72.3366 33.6409C71.8941 33.2946 71.5429 32.8424 71.2832 32.2845C71.0331 31.7265 70.908 31.0868 70.908 30.3653C70.908 28.5278 71.7353 27.2051 73.39 26.397C74.352 25.916 75.9104 25.5119 78.0653 25.1848C78.2577 25.156 78.5704 25.1127 79.0033 25.055L80.5906 24.8674V23.0636C80.5906 22.092 80.3405 21.3657 79.8403 20.8847C79.34 20.394 78.5512 20.1487 77.4737 20.1487C76.6175 20.1487 75.7421 20.2497 74.8474 20.4517C73.9624 20.6442 73.188 20.8991 72.5242 21.2165L71.8604 19.3118C72.4857 18.9654 73.2986 18.6817 74.2991 18.4604C75.2996 18.2295 76.3385 18.1141 77.416 18.1141C81.139 18.1141 83.0005 19.6437 83.0005 22.7029V34.3335H81.0235L80.6628 32.6019Z" fill="black"/>
<path d="M89.4363 41.5775L89.1188 39.3985H92.0626C92.8803 39.3985 93.5922 39.3408 94.1982 39.2254C94.8043 39.1099 95.3094 38.9175 95.7134 38.6482C96.1174 38.3884 96.4445 38.095 96.6947 37.7679C96.9448 37.4505 97.1324 37.032 97.2574 36.5125C97.3921 36.0026 97.4787 35.4928 97.5172 34.9829C97.5653 34.4827 97.5893 33.867 97.5893 33.1358V31.7361C97.0121 32.5731 96.3435 33.2128 95.5835 33.6553C94.8332 34.0978 93.876 34.3191 92.7119 34.3191C91.8076 34.3191 90.9755 34.1652 90.2155 33.8573C89.4555 33.5399 88.8158 33.1214 88.2963 32.6019C87.7768 32.0824 87.3343 31.4812 86.9687 30.7982C86.6032 30.1151 86.3338 29.4081 86.1607 28.6769C85.9971 27.9458 85.9153 27.2099 85.9153 26.4691C85.9153 25.5552 86.0019 24.6894 86.1751 23.8717C86.3482 23.054 86.6176 22.294 86.9832 21.5917C87.3584 20.8798 87.8153 20.269 88.354 19.7591C88.8928 19.2492 89.5469 18.85 90.3165 18.5614C91.0958 18.2632 91.9519 18.1141 92.8851 18.1141C94.8476 18.1141 96.4397 18.9462 97.6615 20.6105V18.4893H100.014V33.1936C100.014 33.867 99.9943 34.4538 99.9559 34.954C99.927 35.4639 99.8452 36.0267 99.7106 36.6424C99.5855 37.258 99.4123 37.7872 99.1911 38.2297C98.9698 38.6722 98.6572 39.1147 98.2531 39.5573C97.8587 40.0094 97.3825 40.3701 96.8245 40.6395C96.2762 40.9185 95.5932 41.1446 94.7754 41.3177C93.9577 41.4909 93.0342 41.5775 92.0049 41.5775H89.4363ZM93.0727 32.27C93.7365 32.27 94.3281 32.1738 94.8476 31.9814C95.3767 31.789 95.8144 31.5293 96.1607 31.2022C96.5071 30.8655 96.7909 30.4663 97.0121 30.0045C97.243 29.5427 97.4065 29.0569 97.5027 28.5471C97.6086 28.0276 97.6615 27.4744 97.6615 26.8876V25.7187C97.6615 24.9395 97.5749 24.2276 97.4017 23.5831C97.2286 22.9289 96.964 22.3421 96.6081 21.8226C96.2521 21.3031 95.7711 20.8991 95.1651 20.6105C94.5686 20.3123 93.876 20.1631 93.0871 20.1631C92.279 20.1631 91.5575 20.3555 90.9226 20.7404C90.2973 21.1155 89.8067 21.6158 89.4507 22.2411C89.1044 22.8568 88.8398 23.5157 88.6571 24.218C88.4839 24.9107 88.3973 25.6177 88.3973 26.3392C88.3973 26.8972 88.4502 27.4504 88.5561 27.9987C88.6715 28.5471 88.8543 29.081 89.1044 29.6005C89.3545 30.1199 89.6576 30.5769 90.0135 30.9713C90.3694 31.3561 90.812 31.6688 91.3411 31.9093C91.8702 32.1498 92.4474 32.27 93.0727 32.27Z" fill="black"/>
<path d="M106.305 12.7461V15.6032H103.881V12.7461H106.305ZM106.305 18.4893V34.3335H103.881V18.4893H106.305Z" fill="black"/>
<path d="M121.5 33.2513C121 33.7227 120.365 34.0834 119.595 34.3335C118.826 34.574 118.032 34.6943 117.214 34.6943C116.021 34.6943 114.934 34.473 113.953 34.0305C112.972 33.5784 112.164 32.9723 111.529 32.2123C110.904 31.4427 110.418 30.5625 110.071 29.5716C109.735 28.5807 109.566 27.5273 109.566 26.4114C109.576 25.3147 109.759 24.2709 110.115 23.2801C110.471 22.2796 110.966 21.3945 111.601 20.6249C112.236 19.8553 113.034 19.2444 113.996 18.7923C114.968 18.3401 116.026 18.1141 117.171 18.1141C118.085 18.1141 118.917 18.2343 119.667 18.4748C120.427 18.7153 121.033 19.052 121.486 19.4849L120.88 21.2021C119.783 20.471 118.537 20.1054 117.142 20.1054C115.69 20.1054 114.473 20.7115 113.491 21.9236C112.52 23.1261 112.034 24.6413 112.034 26.4691C112.034 28.2969 112.52 29.7929 113.491 30.9569C114.473 32.1209 115.752 32.7029 117.33 32.7029C118.59 32.7029 119.778 32.3085 120.894 31.5197L121.5 33.2513Z" fill="black"/>
<path d="M123.867 34.3335V22.5008C123.867 21.6062 123.852 20.269 123.823 18.4893H125.901L126.132 20.5672C126.767 19.7206 127.546 19.1001 128.47 18.7057C129.393 18.3113 130.36 18.1141 131.37 18.1141C133.573 18.1141 135.036 19.0376 135.757 20.8847C137.229 19.0376 139.153 18.1141 141.529 18.1141C144.704 18.1141 146.291 20.3123 146.291 24.7086V34.3335H143.867V25.2426C143.867 24.8 143.862 24.4297 143.852 24.1314C143.843 23.8236 143.814 23.4773 143.766 23.0925C143.727 22.7077 143.67 22.3902 143.593 22.1401C143.525 21.89 143.419 21.6302 143.275 21.3608C143.131 21.0915 142.958 20.8798 142.756 20.7259C142.563 20.572 142.318 20.4469 142.02 20.3507C141.731 20.2545 141.399 20.2064 141.024 20.2064C140.004 20.2064 139.081 20.4902 138.253 21.0578C137.436 21.6254 136.868 22.3902 136.551 23.3522V34.3335H134.126V25.2714C134.126 23.5109 133.929 22.2267 133.535 21.4186C133.14 20.6105 132.38 20.2064 131.255 20.2064C129.946 20.2064 128.859 20.495 127.994 21.0722C127.137 21.6495 126.57 22.371 126.291 23.2368V34.3335H123.867Z" fill="black"/>
<path d="M152.539 12.7461V15.6032H150.115V12.7461H152.539ZM152.539 18.4893V34.3335H150.115V18.4893H152.539Z" fill="black"/>
<path d="M164.228 18.1141C165.94 18.1141 167.2 18.6768 168.008 19.8024C168.816 20.9183 169.221 22.6018 169.221 24.8529V34.3335H166.796V26.3825C166.796 25.6995 166.791 25.1512 166.782 24.7375C166.772 24.3142 166.743 23.8573 166.695 23.3666C166.657 22.876 166.594 22.4912 166.508 22.2122C166.421 21.9236 166.301 21.635 166.147 21.3464C166.003 21.0578 165.82 20.8414 165.599 20.6971C165.377 20.5431 165.108 20.4229 164.79 20.3363C164.483 20.2401 164.122 20.192 163.708 20.192C162.458 20.192 161.371 20.4998 160.447 21.1155C159.533 21.7312 158.97 22.4287 158.759 23.2079V34.3335H156.334V22.3421L156.291 18.4893H158.369L158.6 20.5383C159.187 19.7302 159.98 19.1242 160.981 18.7201C161.981 18.3161 163.064 18.1141 164.228 18.1141Z" fill="black"/>
<path d="M178.773 32.5442C180.322 32.5442 181.501 31.967 182.309 30.8126C183.126 29.6582 183.535 28.1815 183.535 26.3825C183.535 25.5167 183.439 24.7183 183.247 23.9871C183.064 23.256 182.785 22.6066 182.41 22.0391C182.034 21.4715 181.534 21.029 180.909 20.7115C180.284 20.394 179.562 20.2353 178.744 20.2353C177.975 20.2353 177.292 20.4133 176.695 20.7692C176.109 21.1252 175.652 21.6013 175.324 22.1978C174.997 22.7942 174.752 23.4388 174.589 24.1314C174.425 24.8145 174.343 25.536 174.343 26.296C174.343 27.1233 174.42 27.8977 174.574 28.6192C174.738 29.3311 174.983 29.9901 175.31 30.5961C175.647 31.1926 176.109 31.6688 176.695 32.0247C177.292 32.371 177.984 32.5442 178.773 32.5442ZM178.615 34.6799C176.517 34.6799 174.863 33.9006 173.651 32.3422C172.448 30.7837 171.847 28.7443 171.847 26.2238C171.847 24.7327 172.121 23.3714 172.669 22.1401C173.218 20.9087 174.002 19.9275 175.021 19.1963C176.051 18.4652 177.22 18.0996 178.528 18.0996C179.596 18.0996 180.591 18.3449 181.515 18.8356C182.448 19.3262 183.117 19.9852 183.521 20.8125V12.8326L185.945 12.544V34.3335H183.795L183.492 31.8516C183.021 32.6981 182.352 33.3812 181.486 33.9006C180.63 34.4201 179.673 34.6799 178.615 34.6799Z" fill="black"/>
<path d="M200 30.0911C199.952 31.5437 199.452 32.6741 198.499 33.4822C197.547 34.2903 196.301 34.6943 194.762 34.6943C193.636 34.6943 192.573 34.5452 191.573 34.247C190.572 33.9487 189.808 33.6024 189.278 33.208L189.899 31.3609C190.178 31.5437 190.495 31.7217 190.851 31.8948C191.207 32.0584 191.722 32.2316 192.395 32.4143C193.069 32.5971 193.733 32.6885 194.387 32.6885H194.632C195.546 32.6885 196.272 32.4721 196.811 32.0391C197.359 31.5966 197.667 30.9665 197.734 30.1488V29.9756C197.734 28.7924 196.936 27.9795 195.339 27.5369L193.218 26.9453C191.727 26.5316 190.673 25.9593 190.058 25.2281C189.452 24.497 189.139 23.6071 189.12 22.5585C189.12 21.991 189.23 21.4474 189.452 20.9279C189.682 20.4085 190.01 19.9419 190.433 19.5282C190.856 19.1049 191.409 18.7682 192.092 18.5181C192.785 18.2584 193.559 18.1237 194.416 18.1141C196.272 18.1141 197.869 18.4556 199.206 19.1386L198.629 20.8847C197.205 20.3171 195.859 20.0333 194.589 20.0333C193.684 20.0429 192.953 20.269 192.395 20.7115C191.837 21.154 191.558 21.7745 191.558 22.573C191.568 23.0925 191.746 23.535 192.092 23.9006C192.439 24.2661 193.016 24.5547 193.824 24.7664L196.003 25.358C197.33 25.7139 198.326 26.2623 198.99 27.003C199.663 27.7438 200 28.7491 200 30.0189V30.0911Z" fill="black"/>
</svg>
